<svg xmlns="http://www.w3.org/2000/svg" width="48" height="48" viewBox="0 0 48 48">
    <path fill="#e77222" fill-rule="evenodd" d="M47.329 6.847C46.592 4.292 42.559 0 23.72 0 14.844 0 8.402.852 4.57 2.534.336 4.39 0 6.902 0 7.644v14.524c.02 9.055 5.61 17.4 14.632 21.84l7.253 3.572c1.14.56 2.531.56 3.67 0l7.254-3.571c9.022-4.441 14.612-12.786 14.632-21.84V7.643c0-.269-.038-.536-.112-.797zM23.72 3.277c18.54 0 19.949 4.28 19.975 4.366v14.492c.001 7.89-4.862 15.165-12.721 19.035l-7.254 3.603-7.253-3.57c-7.86-3.87-12.722-11.146-12.722-19.035V7.633c.018-.247.6-4.357 19.975-4.357zm2.497 25.294h-4.993v4.572h4.993V28.57zm0-16h-4.993v13.715h4.993V12.57z"/>
</svg>
