<svg width="28" height="25" viewBox="0 0 28 25" fill="none" xmlns="http://www.w3.org/2000/svg">
<path fill-rule="evenodd" clip-rule="evenodd" d="M4.6921 10.4617C5.15942 10.4617 5.53825 10.8405 5.53825 11.3078V23.154H22.4613V11.3078C22.4613 10.8405 22.8402 10.4617 23.3075 10.4617C23.7748 10.4617 24.1536 10.8405 24.1536 11.3078V24.0001C24.1536 24.4674 23.7748 24.8463 23.3075 24.8463H4.6921C4.22478 24.8463 3.84595 24.4674 3.84595 24.0001V11.3078C3.84595 10.8405 4.22478 10.4617 4.6921 10.4617Z" fill="black"/>
<path fill-rule="evenodd" clip-rule="evenodd" d="M13.2906 1.21558C13.6934 0.851318 14.3066 0.851318 14.7094 1.21558L27.4017 12.6932C27.835 13.085 27.8686 13.7539 27.4768 14.1872C27.085 14.6204 26.4161 14.654 25.9829 14.2622L14 3.4261L2.01712 14.2622C1.58386 14.654 0.915006 14.6204 0.523204 14.1872C0.131402 13.7539 0.165014 13.085 0.598279 12.6932L13.2906 1.21558Z" fill="black"/>
</svg>
