<svg width="15" height="16" viewBox="0 0 15 16" fill="none" xmlns="http://www.w3.org/2000/svg">
<path fill-rule="evenodd" clip-rule="evenodd" d="M2.5 6.4V4.8C2.5 2.14903 4.73858 0 7.5 0C10.2614 0 12.5 2.14903 12.5 4.8H10C10 3.47452 8.88071 2.4 7.5 2.4C6.11929 2.4 5 3.47452 5 4.8V6.4H10H13.3333C14.2538 6.4 15 7.11634 15 8V14.4C15 15.2837 14.2538 16 13.3333 16H1.66667C0.746192 16 0 15.2837 0 14.4V8C0 7.12 0.75 6.4 1.66667 6.4H2.5ZM6.66667 11.784V13.6H8.33333V11.784C8.98661 11.4219 9.30511 10.6837 9.10988 9.98425C8.91464 9.28475 8.25434 8.79836 7.5 8.79836C6.74566 8.79836 6.08536 9.28475 5.89012 9.98425C5.69489 10.6837 6.01339 11.4219 6.66667 11.784Z" fill="#666666"/>
</svg>
