<svg width="32" height="32" viewBox="0 0 32 32" fill="none" xmlns="http://www.w3.org/2000/svg">
<path fill-rule="evenodd" clip-rule="evenodd" d="M16 32C24.8366 32 32 24.8366 32 16C32 7.16344 24.8366 0 16 0C7.16344 0 0 7.16344 0 16C0 24.8366 7.16344 32 16 32ZM16 24.7222C15.1444 24.7222 14.4522 24.03 14.4522 23.1744H17.5478C17.5478 24.03 16.8556 24.7222 16 24.7222ZM14.8333 9.16667C14.8333 8.52111 15.3544 8 16 8C16.6456 8 17.1667 8.52111 17.1667 9.16667V10.0767C19.6089 10.6056 21.4444 12.7833 21.4444 15.3889V20.0556L23 21.6111V22.3889H9V21.6111L10.5556 20.0556V15.3889C10.5556 12.7833 12.3911 10.6056 14.8333 10.0767V9.16667Z" fill="#2E58AD"/>
</svg>
