<svg width="23" height="23" viewBox="0 0 23 23" fill="none" xmlns="http://www.w3.org/2000/svg">
<path d="M0 2.75061C0 4.26973 1.23149 5.50122 2.75061 5.50122C4.26973 5.50122 5.50122 4.26973 5.50122 2.75061C5.50122 1.23149 4.26973 0 2.75061 0C1.23149 0 0 1.23149 0 2.75061ZM8.25183 19.2543C8.25183 20.7734 9.48332 22.0049 11.0024 22.0049C12.5216 22.0049 13.7531 20.7734 13.7531 19.2543C13.7531 17.7352 12.5216 16.5037 11.0024 16.5037C9.48332 16.5037 8.25183 17.7352 8.25183 19.2543ZM0 19.2543C0 20.7734 1.23149 22.0049 2.75061 22.0049C4.26973 22.0049 5.50122 20.7734 5.50122 19.2543C5.50122 17.7352 4.26973 16.5037 2.75061 16.5037C1.23149 16.5037 0 17.7352 0 19.2543ZM0 11.0024C0 12.5216 1.23149 13.7531 2.75061 13.7531C4.26973 13.7531 5.50122 12.5216 5.50122 11.0024C5.50122 9.48332 4.26973 8.25183 2.75061 8.25183C1.23149 8.25183 0 9.48332 0 11.0024ZM8.25183 11.0024C8.25183 12.5216 9.48332 13.7531 11.0024 13.7531C12.5216 13.7531 13.7531 12.5216 13.7531 11.0024C13.7531 9.48332 12.5216 8.25183 11.0024 8.25183C9.48332 8.25183 8.25183 9.48332 8.25183 11.0024ZM19.2543 0C17.7352 0 16.5037 1.23149 16.5037 2.75061C16.5037 4.26973 17.7352 5.50122 19.2543 5.50122C20.7734 5.50122 22.0049 4.26973 22.0049 2.75061C22.0049 1.23149 20.7734 0 19.2543 0ZM8.25183 2.75061C8.25183 4.26973 9.48332 5.50122 11.0024 5.50122C12.5216 5.50122 13.7531 4.26973 13.7531 2.75061C13.7531 1.23149 12.5216 0 11.0024 0C9.48332 0 8.25183 1.23149 8.25183 2.75061ZM16.5037 11.0024C16.5037 12.5216 17.7352 13.7531 19.2543 13.7531C20.7734 13.7531 22.0049 12.5216 22.0049 11.0024C22.0049 9.48332 20.7734 8.25183 19.2543 8.25183C17.7352 8.25183 16.5037 9.48332 16.5037 11.0024ZM16.5037 19.2543C16.5037 20.7734 17.7352 22.0049 19.2543 22.0049C20.7734 22.0049 22.0049 20.7734 22.0049 19.2543C22.0049 17.7352 20.7734 16.5037 19.2543 16.5037C17.7352 16.5037 16.5037 17.7352 16.5037 19.2543Z" fill="white"/>
</svg>
