<svg width="28" height="25" viewBox="0 0 28 25" fill="none" xmlns="http://www.w3.org/2000/svg">
<path fill-rule="evenodd" clip-rule="evenodd" d="M4.69234 10.4614C5.15966 10.4614 5.5385 10.8403 5.5385 11.3076V23.1537H22.4616V11.3076C22.4616 10.8403 22.8404 10.4614 23.3077 10.4614C23.775 10.4614 24.1539 10.8403 24.1539 11.3076V23.9999C24.1539 24.4672 23.775 24.846 23.3077 24.846H4.69234C4.22503 24.846 3.84619 24.4672 3.84619 23.9999V11.3076C3.84619 10.8403 4.22503 10.4614 4.69234 10.4614Z" fill="white"/>
<path fill-rule="evenodd" clip-rule="evenodd" d="M13.2906 1.21546C13.6934 0.851196 14.3066 0.851196 14.7094 1.21546L27.4017 12.6931C27.835 13.0849 27.8686 13.7538 27.4768 14.187C27.085 14.6203 26.4161 14.6539 25.9829 14.2621L14 3.42598L2.01712 14.2621C1.58386 14.6539 0.915006 14.6203 0.523204 14.187C0.131402 13.7538 0.165014 13.0849 0.598279 12.6931L13.2906 1.21546Z" fill="white"/>
</svg>
