<svg width="15" height="15" viewBox="0 0 15 15" fill="none" xmlns="http://www.w3.org/2000/svg">
<path fill-rule="evenodd" clip-rule="evenodd" d="M11.5859 2H9.00008V0H13.0001C14.1046 0 15.0001 0.895431 15.0001 2V6H13.0001V3.41421L8.20718 8.20711L6.79297 6.79289L11.5859 2Z" fill="black"/>
<path fill-rule="evenodd" clip-rule="evenodd" d="M7 0H3C1.34315 0 0 1.34314 0 3V12C0 13.6569 1.34314 15 3 15H12C13.6569 15 15 13.6569 15 12V8H13V12C13 12.5523 12.5523 13 12 13H3C2.44772 13 2 12.5523 2 12V3C2 2.44772 2.44772 2 3 2H7V0Z" fill="black"/>
</svg>
