<svg width="130" height="22" viewBox="0 0 130 22" fill="none" xmlns="http://www.w3.org/2000/svg">
<mask id="mask0_234_10070" style="mask-type:alpha" maskUnits="userSpaceOnUse" x="0" y="0" width="16" height="22">
<path fill-rule="evenodd" clip-rule="evenodd" d="M0 0H15.729V21.1456H0V0Z" fill="white"/>
</mask>
<g mask="url(#mask0_234_10070)">
<path fill-rule="evenodd" clip-rule="evenodd" d="M0 10.6825C0 3.88945 4.41058 0 9.43208 0C12.0094 0 14.0816 1.23257 15.4368 2.65688L12.9393 5.77956C11.9561 4.84828 10.9199 4.19074 9.51178 4.19074C6.96118 4.19074 4.86208 6.54649 4.86208 10.5181C4.86208 14.5721 6.66892 16.9277 9.45864 16.9277C11.0262 16.9277 12.3017 16.1059 13.2316 15.0651L15.729 18.1328C14.055 20.1325 11.85 21.1458 9.27266 21.1458C4.25117 21.1458 0 17.585 0 10.6825Z" fill="white"/>
</g>
<path fill-rule="evenodd" clip-rule="evenodd" d="M23.3799 9.72362H25.5054C27.7639 9.72362 28.9595 8.71017 28.9595 6.79284C28.9595 4.87534 27.7639 4.24553 25.5054 4.24553H23.3799V9.72362ZM29.3058 20.7622L25.6659 13.5859H23.3808V20.7622H18.625V0.383301H25.8784C30.1029 0.383301 33.6101 1.86239 33.6101 6.79284C33.6101 9.77841 32.2549 11.6957 30.2091 12.6818L34.6197 20.7622H29.3058Z" fill="white"/>
<path fill-rule="evenodd" clip-rule="evenodd" d="M37.4351 0.383301H49.9757V4.43726H42.1909V8.21715H48.8067V12.3259H42.1909V16.6534H50.2679V20.7622H37.4351V0.383301Z" fill="white"/>
<path fill-rule="evenodd" clip-rule="evenodd" d="M52.2603 0.383301H57.1223L58.3712 9.66884L59.1683 16.133H59.2747C59.6465 13.9693 60.0451 11.7781 60.4436 9.66884L62.4628 0.383301H66.4483L68.5207 9.66884C68.9192 11.7505 69.2646 13.9418 69.6631 16.133H69.796C70.0351 13.9418 70.3008 11.7781 70.5399 9.66884L71.8152 0.383301H76.3319L72.9045 20.7622H66.9265L65.1463 11.8875C64.8276 10.3264 64.5619 8.68279 64.3759 7.14892H64.2429C64.0038 8.68279 63.7647 10.3264 63.4724 11.8875L61.7455 20.7622H55.8738L52.2603 0.383301Z" fill="white"/>
<path fill-rule="evenodd" clip-rule="evenodd" d="M79.0146 0.383301H83.8502L88.7654 10.1345L90.7049 14.6539H90.8379C90.5722 12.4901 90.2003 9.55928 90.2003 7.12153V0.383301H94.717V20.7622H89.8814L84.9926 10.9288L83.0531 6.46416H82.9203C83.1328 8.73757 83.5313 11.5316 83.5313 13.9967V20.7622H79.0146V0.383301Z" fill="white"/>
<path fill-rule="evenodd" clip-rule="evenodd" d="M99.314 0.383301H111.855V4.43726H104.07V8.21715H110.686V12.3259H104.07V16.6534H112.147V20.7622H99.314V0.383301Z" fill="white"/>
<mask id="mask1_234_10070" style="mask-type:alpha" maskUnits="userSpaceOnUse" x="114" y="0" width="16" height="21">
<path fill-rule="evenodd" clip-rule="evenodd" d="M114.536 0.383301H129.999V20.7623H114.536V0.383301Z" fill="white"/>
</mask>
<g mask="url(#mask1_234_10070)">
<path fill-rule="evenodd" clip-rule="evenodd" d="M119.876 4.43726H114.536V0.383301H129.999V4.43726H124.632V20.7623H119.876V4.43726Z" fill="white"/>
</g>
</svg>
