<svg width="222" height="153" viewBox="0 0 222 153" fill="none" xmlns="http://www.w3.org/2000/svg">
<circle cx="173" cy="158" r="158" fill="#E1EAF9"/>
<rect x="42.8611" y="45.4606" width="126.891" height="83.2722" rx="2.34291" transform="rotate(25.335 42.8611 45.4606)" fill="#8E909E" fill-opacity="0.2"/>
<rect x="38.8611" y="40.4606" width="126.891" height="83.2722" rx="2.34291" transform="rotate(25.335 38.8611 40.4606)" fill="#78BDF3"/>
<path d="M144.683 94.9489L97.5483 72.633C95.2093 71.5256 92.4155 72.5241 91.3081 74.8631L63.0789 134.488C61.9715 136.827 62.97 139.621 65.309 140.728L112.444 163.044L144.683 94.9489Z" fill="#CFEAFF"/>
<path d="M83.6909 81.685C84.7151 79.5217 87.0195 74.6543 88.0437 72.491C92.5572 62.9579 102.68 66.2879 97.601 77.0159C92.5219 87.7438 89.6599 93.5566 82.2231 104.863C79.9908 108.257 50.2172 154.92 69.6901 154.502" stroke="#3D77BB" stroke-width="2.92864"/>
<path d="M41.9429 46.3069L89.0779 68.6228C91.4169 69.7302 92.4153 72.524 91.3079 74.863L63.0788 134.488C61.9714 136.827 59.1775 137.825 56.8385 136.718L9.7035 114.402L41.9429 46.3069Z" fill="#F2F8FC"/>
<rect x="44.5225" y="56.3028" width="19.8267" height="2.64356" transform="rotate(25.335 44.5225 56.3028)" fill="#BBC7D2"/>
<rect x="41.6943" y="62.2762" width="43.6188" height="2.64356" transform="rotate(25.335 41.6943 62.2762)" fill="#BBC7D2"/>
<rect x="38.8665" y="68.2493" width="43.6188" height="2.64356" transform="rotate(25.335 38.8665 68.2493)" fill="#BBC7D2"/>
<rect x="36.0383" y="74.2227" width="43.6188" height="2.64356" transform="rotate(25.335 36.0383 74.2227)" fill="#BBC7D2"/>
<path d="M152.856 48.8588L215.709 25.6522C216.745 25.2696 217.895 25.7994 218.278 26.8356L249.451 111.264C249.834 112.301 249.304 113.451 248.268 113.833L185.415 137.04L152.856 48.8588Z" fill="#8E909E" fill-opacity="0.2"/>
<path d="M153.856 42.8591L216.709 19.6524C217.745 19.2698 218.895 19.7997 219.278 20.8359L250.451 105.265C250.833 106.301 250.304 107.451 249.267 107.834L186.415 131.04L153.856 42.8591Z" fill="#B9DDFA"/>
<line x1="161.83" y1="39.915" x2="194.389" y2="128.096" stroke="#7EA7C7" stroke-opacity="0.5" stroke-width="3"/>
<mask id="path-14-inside-1_1_1953" fill="white">
<path fill-rule="evenodd" clip-rule="evenodd" d="M175.981 42.152C176.937 44.7425 175.613 47.6179 173.022 48.5743L197.614 115.179C200.205 114.223 203.08 115.548 204.037 118.138L237.808 105.669C236.852 103.078 238.176 100.203 240.767 99.2464L216.175 32.6414C213.584 33.5979 210.709 32.2732 209.752 29.6828L175.981 42.152Z"/>
</mask>
<path d="M173.022 48.5743L172.329 46.6981L170.453 47.3909L171.146 49.2671L173.022 48.5743ZM175.981 42.152L175.288 40.2758L173.412 40.9685L174.105 42.8447L175.981 42.152ZM197.614 115.179L195.738 115.872L196.431 117.748L198.307 117.056L197.614 115.179ZM204.037 118.138L202.16 118.831L202.853 120.707L204.729 120.014L204.037 118.138ZM237.808 105.669L238.501 107.545L240.377 106.852L239.684 104.976L237.808 105.669ZM240.767 99.2464L241.46 101.123L243.336 100.43L242.643 98.5537L240.767 99.2464ZM216.175 32.6414L218.051 31.9487L217.358 30.0725L215.482 30.7652L216.175 32.6414ZM209.752 29.6828L211.629 28.99L210.936 27.1138L209.06 27.8066L209.752 29.6828ZM173.715 50.4505C177.342 49.1115 179.196 45.086 177.857 41.4593L174.105 42.8447C174.678 44.399 173.884 46.1243 172.329 46.6981L173.715 50.4505ZM199.49 114.487L174.898 47.8816L171.146 49.2671L195.738 115.872L199.49 114.487ZM205.913 117.445C204.574 113.819 200.548 111.964 196.922 113.303L198.307 117.056C199.861 116.482 201.587 117.276 202.16 118.831L205.913 117.445ZM237.115 103.793L203.344 116.262L204.729 120.014L238.501 107.545L237.115 103.793ZM240.074 97.3702C236.447 98.7093 234.593 102.735 235.932 106.361L239.684 104.976C239.11 103.422 239.905 101.696 241.46 101.123L240.074 97.3702ZM214.298 33.3341L238.891 99.9391L242.643 98.5537L218.051 31.9487L214.298 33.3341ZM215.482 30.7652C213.928 31.3391 212.202 30.5443 211.629 28.99L207.876 30.3755C209.215 34.0022 213.241 35.8567 216.867 34.5176L215.482 30.7652ZM176.674 44.0282L210.445 31.559L209.06 27.8066L175.288 40.2758L176.674 44.0282Z" fill="#8FB4D1" fill-opacity="0.5" mask="url(#path-14-inside-1_1_1953)"/>
<path fill-rule="evenodd" clip-rule="evenodd" d="M165.408 121.985L163.269 118.919L158.158 122.484L157.682 121.803C157.42 121.426 156.902 121.334 156.526 121.596L153.95 123.393L151.174 121.53L126.972 138.412C126.689 138.609 126.62 138.997 126.817 139.28C127.014 139.562 127.402 139.631 127.685 139.434L151.188 123.04L152.854 124.158L149.279 126.651C149.019 126.53 148.703 126.546 148.451 126.722C148.198 126.898 148.074 127.189 148.098 127.475L102.005 159.626C101.703 159.837 101.584 160.214 101.685 160.549L94.9125 167.613L95.1502 167.954L93.7873 168.904C93.5991 169.035 93.5529 169.294 93.6842 169.483L93.9219 169.823C94.0532 170.012 94.3121 170.058 94.5003 169.926L95.8633 168.976L96.101 169.317L105.07 165.401C105.349 165.612 105.743 165.63 106.046 165.419L152.139 133.268C152.399 133.389 152.714 133.373 152.967 133.197C153.219 133.021 153.343 132.73 153.319 132.444L160.566 127.389C160.943 127.127 161.035 126.609 160.772 126.232L160.297 125.551L165.408 121.985Z" fill="#8E909E" fill-opacity="0.2"/>
<rect x="161.269" y="115.919" width="3.73913" height="9.55556" transform="rotate(55.1029 161.269 115.919)" fill="#BBC7D2"/>
<path fill-rule="evenodd" clip-rule="evenodd" d="M153.03 121.867C152.838 122.153 152.451 122.229 152.165 122.038L149.188 120.04L125.685 136.434C125.402 136.631 125.014 136.562 124.817 136.28C124.62 135.997 124.689 135.609 124.972 135.412L149.174 118.53L152.86 121.002C153.145 121.194 153.222 121.581 153.03 121.867Z" fill="#BBC7D2"/>
<path d="M154.526 118.596C154.902 118.334 155.42 118.426 155.682 118.802L158.772 123.232C159.035 123.609 158.943 124.127 158.566 124.389L104.046 162.419C103.67 162.681 103.152 162.589 102.889 162.213L99.7992 157.783C99.5366 157.407 99.6289 156.889 100.005 156.626L154.526 118.596Z" fill="#0C43AB"/>
<rect x="147.132" y="123.247" width="7.89372" height="1.66184" rx="0.830918" transform="rotate(55.1029 147.132 123.247)" fill="#BBC7D2"/>
</svg>
