<svg width="130" height="22" viewBox="0 0 130 22" fill="none" xmlns="http://www.w3.org/2000/svg">
<mask id="mask0_234_10085" style="mask-type:alpha" maskUnits="userSpaceOnUse" x="0" y="0" width="16" height="22">
<path fill-rule="evenodd" clip-rule="evenodd" d="M0 0.145508H15.729V21.2911H0V0.145508Z" fill="white"/>
</mask>
<g mask="url(#mask0_234_10085)">
<path fill-rule="evenodd" clip-rule="evenodd" d="M0 10.828C0 4.03496 4.41058 0.145508 9.43208 0.145508C12.0094 0.145508 14.0816 1.37808 15.4368 2.80238L12.9393 5.92507C11.9561 4.99379 10.9199 4.33625 9.51178 4.33625C6.96118 4.33625 4.86208 6.692 4.86208 10.6636C4.86208 14.7176 6.66892 17.0732 9.45864 17.0732C11.0262 17.0732 12.3017 16.2515 13.2316 15.2106L15.729 18.2783C14.055 20.278 11.85 21.2913 9.27266 21.2913C4.25117 21.2913 0 17.7305 0 10.828Z" fill="#0082EE"/>
</g>
<path fill-rule="evenodd" clip-rule="evenodd" d="M23.3799 9.86913H25.5054C27.7639 9.86913 28.9595 8.85568 28.9595 6.93835C28.9595 5.02085 27.7639 4.39103 25.5054 4.39103H23.3799V9.86913ZM29.3058 20.9077L25.6659 13.7314H23.3808V20.9077H18.625V0.528809H25.8784C30.1029 0.528809 33.6101 2.00789 33.6101 6.93835C33.6101 9.92391 32.2549 11.8412 30.2091 12.8273L34.6197 20.9077H29.3058Z" fill="#0082EE"/>
<path fill-rule="evenodd" clip-rule="evenodd" d="M37.4351 0.528809H49.9757V4.58277H42.1909V8.36266H48.8067V12.4714H42.1909V16.7989H50.2679V20.9077H37.4351V0.528809Z" fill="#0082EE"/>
<path fill-rule="evenodd" clip-rule="evenodd" d="M52.2603 0.528809H57.1223L58.3712 9.81435L59.1683 16.2785H59.2747C59.6465 14.1148 60.0451 11.9236 60.4436 9.81435L62.4628 0.528809H66.4483L68.5207 9.81435C68.9192 11.896 69.2646 14.0873 69.6631 16.2785H69.796C70.0351 14.0873 70.3008 11.9236 70.5399 9.81435L71.8152 0.528809H76.3319L72.9045 20.9077H66.9265L65.1463 12.033C64.8276 10.4719 64.5619 8.82829 64.3759 7.29443H64.2429C64.0038 8.82829 63.7647 10.4719 63.4724 12.033L61.7455 20.9077H55.8738L52.2603 0.528809Z" fill="#0082EE"/>
<path fill-rule="evenodd" clip-rule="evenodd" d="M79.0146 0.528809H83.8502L88.7654 10.28L90.7049 14.7994H90.8379C90.5722 12.6356 90.2003 9.70479 90.2003 7.26704V0.528809H94.717V20.9077H89.8814L84.9926 11.0743L83.0531 6.60966H82.9203C83.1328 8.88307 83.5313 11.6771 83.5313 14.1422V20.9077H79.0146V0.528809Z" fill="#0082EE"/>
<path fill-rule="evenodd" clip-rule="evenodd" d="M99.314 0.528809H111.855V4.58277H104.07V8.36266H110.686V12.4714H104.07V16.7989H112.147V20.9077H99.314V0.528809Z" fill="#0082EE"/>
<mask id="mask1_234_10085" style="mask-type:alpha" maskUnits="userSpaceOnUse" x="114" y="0" width="16" height="21">
<path fill-rule="evenodd" clip-rule="evenodd" d="M114.536 0.528809H129.999V20.9078H114.536V0.528809Z" fill="white"/>
</mask>
<g mask="url(#mask1_234_10085)">
<path fill-rule="evenodd" clip-rule="evenodd" d="M119.876 4.58277H114.536V0.528809H129.999V4.58277H124.632V20.9078H119.876V4.58277Z" fill="#0082EE"/>
</g>
</svg>
