<svg width="293" height="187" viewBox="0 0 293 187" fill="none" xmlns="http://www.w3.org/2000/svg">
<path d="M92.9418 172.248C120.357 184.076 134.919 151.495 163.808 143.204C175.259 139.918 184.704 143.63 193.51 136.049C202.739 128.102 204 119.14 203.218 107.453C201.456 81.1132 170.015 73.5617 141.795 71.6683C107.015 69.3346 71.5912 82.6385 65.2456 114.63C60.4333 138.892 68.948 161.896 92.9418 172.248Z" fill="#E1EAF9"/>
<path d="M177.277 179.646L202.75 111.366C202.805 111.217 203.001 111.183 203.103 111.306L223.749 136.186C223.822 136.274 223.81 136.405 223.722 136.478L203.843 152.974C203.828 152.986 203.815 153 203.804 153.016L181.882 184.945C181.805 185.059 181.64 185.066 181.553 184.96L177.312 179.85C177.265 179.793 177.251 179.715 177.277 179.646Z" fill="#E7E8F3"/>
<path d="M275.431 98.1956L203.625 110.639C203.468 110.666 203.399 110.853 203.501 110.975L224.147 135.856C224.22 135.944 224.35 135.956 224.438 135.883L244.318 119.387C244.332 119.374 244.349 119.364 244.366 119.357L279.791 103.699C279.916 103.643 279.954 103.483 279.866 103.378L275.625 98.2673C275.578 98.2103 275.504 98.1829 275.431 98.1956Z" fill="#E7E8F3"/>
<path d="M221.242 118.91C229.9 129.344 237.898 138.736 243.979 146.687C253.476 159.107 258.294 168.01 253.634 171.877C248.975 175.744 241.112 169.367 230.657 157.742C223.964 150.299 216.208 140.706 207.549 130.272C199.086 120.073 191.095 110.726 184.881 102.707C174.809 89.7072 169.407 80.1944 174.232 76.1905C179.057 72.1867 187.41 79.2507 198.329 91.5473C205.066 99.1334 212.778 108.711 221.242 118.91Z" fill="#E7E8F3"/>
<path d="M241.708 195.421L256.459 175.364C256.515 175.288 256.512 175.183 256.452 175.109L244.851 161.129C244.744 161.001 244.537 161.045 244.492 161.206L236.354 190.438C236.336 190.504 236.351 190.574 236.394 190.626L240.405 195.459C240.748 195.873 241.39 195.855 241.708 195.421Z" fill="#E7E8F3"/>
<path d="M278.373 165.167L255.94 175.966C255.854 176.007 255.751 175.984 255.691 175.911L244.09 161.931C243.983 161.803 244.065 161.607 244.231 161.593L274.463 158.985C274.531 158.979 274.597 159.007 274.64 159.059L278.651 163.892C278.994 164.307 278.858 164.933 278.373 165.167Z" fill="#E7E8F3"/>
<path d="M246.77 92.6181C246.77 92.6181 244.861 93.3957 243.11 94.8489C241.358 96.3021 240.242 98.0349 240.242 98.0349C240.242 98.0349 243.67 102.933 246.452 105.518C247.717 106.694 249.863 108.333 249.863 108.333L255.117 103.973C255.117 103.973 253.902 101.562 252.979 100.101C250.952 96.8902 246.77 92.6181 246.77 92.6181Z" fill="#E7E8F3"/>
<path d="M224.953 96.4737C224.953 96.4737 223.044 97.2513 221.292 98.7045C219.541 100.158 218.425 101.891 218.425 101.891C218.425 101.891 221.852 106.789 224.634 109.374C225.9 110.549 228.046 112.188 228.046 112.188L233.3 107.829C233.3 107.829 232.084 105.417 231.162 103.957C229.135 100.746 224.953 96.4737 224.953 96.4737Z" fill="#E7E8F3"/>
<path d="M190.909 123.055C190.909 123.055 189 123.833 187.249 125.286C185.498 126.739 184.381 128.472 184.381 128.472C184.381 128.472 187.809 133.37 190.591 135.955C191.856 137.13 194.002 138.77 194.002 138.77L199.256 134.41C199.256 134.41 198.041 131.998 197.119 130.538C195.091 127.327 190.909 123.055 190.909 123.055Z" fill="#E7E8F3"/>
<path d="M183.092 144.617C183.092 144.617 181.183 145.394 179.432 146.848C177.68 148.301 176.564 150.034 176.564 150.034C176.564 150.034 179.992 154.932 182.774 157.517C184.039 158.692 186.185 160.332 186.185 160.332L191.439 155.972C191.439 155.972 190.223 153.56 189.301 152.1C187.274 148.889 183.092 144.617 183.092 144.617Z" fill="#E7E8F3"/>
<path d="M170.018 145.499C170.018 145.499 171.134 143.767 172.885 142.313C174.637 140.86 176.546 140.083 176.546 140.083C176.546 140.083 180.728 144.355 182.755 147.566C183.677 149.026 184.893 151.437 184.893 151.437L179.639 155.797C179.639 155.797 177.493 154.158 176.227 152.982C173.445 150.398 170.018 145.499 170.018 145.499Z" fill="#FCFCFF"/>
<mask id="mask0_1_1924" style="mask-type:alpha" maskUnits="userSpaceOnUse" x="170" y="140" width="15" height="16">
<path d="M170.018 145.499C170.018 145.499 171.134 143.767 172.885 142.313C174.637 140.86 176.546 140.083 176.546 140.083C176.546 140.083 180.728 144.355 182.755 147.566C183.677 149.026 184.893 151.437 184.893 151.437L179.639 155.797C179.639 155.797 177.493 154.158 176.227 152.982C173.445 150.398 170.018 145.499 170.018 145.499Z" fill="#FAFAFA"/>
</mask>
<g mask="url(#mask0_1_1924)">
<rect x="173.895" y="140.938" width="4.96537" height="17.5857" transform="rotate(-39.6866 173.895 140.938)" fill="#D9D9D9" fill-opacity="0.15"/>
</g>
<mask id="mask1_1_1924" style="mask-type:alpha" maskUnits="userSpaceOnUse" x="170" y="140" width="15" height="16">
<path d="M170.018 145.499C170.018 145.499 171.134 143.767 172.885 142.313C174.637 140.86 176.546 140.083 176.546 140.083C176.546 140.083 180.728 144.355 182.755 147.566C183.677 149.026 184.893 151.437 184.893 151.437L179.639 155.797C179.639 155.797 177.493 154.158 176.227 152.982C173.445 150.398 170.018 145.499 170.018 145.499Z" fill="white"/>
</mask>
<g mask="url(#mask1_1_1924)">
<path d="M177.994 149.517C179.208 146.67 180.456 144.957 181.128 143.997L182.906 146.015L178.533 156.074L176.097 155.187C176.437 154.06 176.78 152.363 177.994 149.517Z" fill="#D9D9D9" fill-opacity="0.2"/>
</g>
<path d="M177.831 124.767C177.831 124.767 178.947 123.034 180.698 121.581C182.45 120.128 184.359 119.35 184.359 119.35C184.359 119.35 188.541 123.623 190.568 126.833C191.49 128.294 192.706 130.705 192.706 130.705L187.452 135.065C187.452 135.065 185.306 133.426 184.04 132.25C181.258 129.665 177.831 124.767 177.831 124.767Z" fill="#FCFCFF"/>
<mask id="mask2_1_1924" style="mask-type:alpha" maskUnits="userSpaceOnUse" x="177" y="119" width="16" height="17">
<path d="M177.831 124.767C177.831 124.767 178.947 123.034 180.698 121.581C182.45 120.128 184.359 119.35 184.359 119.35C184.359 119.35 188.541 123.623 190.568 126.833C191.49 128.294 192.706 130.705 192.706 130.705L187.452 135.065C187.452 135.065 185.306 133.426 184.04 132.25C181.258 129.665 177.831 124.767 177.831 124.767Z" fill="#FAFAFA"/>
</mask>
<g mask="url(#mask2_1_1924)">
<rect x="181.708" y="120.206" width="4.96537" height="17.5857" transform="rotate(-39.6866 181.708 120.206)" fill="#D9D9D9" fill-opacity="0.15"/>
</g>
<mask id="mask3_1_1924" style="mask-type:alpha" maskUnits="userSpaceOnUse" x="177" y="119" width="16" height="17">
<path d="M177.831 124.767C177.831 124.767 178.947 123.034 180.698 121.581C182.45 120.128 184.359 119.35 184.359 119.35C184.359 119.35 188.541 123.623 190.568 126.833C191.49 128.294 192.706 130.705 192.706 130.705L187.452 135.065C187.452 135.065 185.306 133.426 184.04 132.25C181.258 129.665 177.831 124.767 177.831 124.767Z" fill="white"/>
</mask>
<g mask="url(#mask3_1_1924)">
<path d="M185.807 128.784C187.021 125.938 188.269 124.225 188.941 123.265L190.719 125.283L186.346 135.341L183.91 134.455C184.25 133.328 184.593 131.631 185.807 128.784Z" fill="#D9D9D9" fill-opacity="0.2"/>
</g>
<path d="M239.77 87.6181C239.77 87.6181 237.861 88.3957 236.109 89.8489C234.358 91.3021 233.242 93.0349 233.242 93.0349C233.242 93.0349 236.67 97.9332 239.452 100.518C240.717 101.694 242.863 103.333 242.863 103.333L248.117 98.973C248.117 98.973 246.901 96.5615 245.979 95.1011C243.952 91.8902 239.77 87.6181 239.77 87.6181Z" fill="#FCFCFF"/>
<mask id="mask4_1_1924" style="mask-type:alpha" maskUnits="userSpaceOnUse" x="233" y="87" width="16" height="17">
<path d="M239.77 87.6181C239.77 87.6181 237.861 88.3957 236.109 89.8489C234.358 91.3021 233.242 93.0349 233.242 93.0349C233.242 93.0349 236.67 97.9332 239.452 100.518C240.717 101.694 242.863 103.333 242.863 103.333L248.117 98.973C248.117 98.973 246.901 96.5615 245.979 95.1011C243.952 91.8902 239.77 87.6181 239.77 87.6181Z" fill="#FAFAFA"/>
</mask>
<g mask="url(#mask4_1_1924)">
<rect width="4.96537" height="17.5857" transform="matrix(-0.769549 0.638588 0.638588 0.769549 241.736 84.642)" fill="#D9D9D9" fill-opacity="0.15"/>
</g>
<mask id="mask5_1_1924" style="mask-type:alpha" maskUnits="userSpaceOnUse" x="233" y="87" width="16" height="17">
<path d="M239.77 87.6181C239.77 87.6181 237.861 88.3957 236.109 89.8489C234.358 91.3021 233.242 93.0349 233.242 93.0349C233.242 93.0349 236.67 97.9332 239.452 100.518C240.717 101.694 242.863 103.333 242.863 103.333L248.117 98.973C248.117 98.973 246.901 96.5615 245.979 95.1011C243.952 91.8902 239.77 87.6181 239.77 87.6181Z" fill="white"/>
</mask>
<g mask="url(#mask5_1_1924)">
<path d="M242.247 96.1986C239.225 96.8669 237.311 97.7776 236.245 98.2604L237.9 100.38L248.592 97.9377L248.17 95.3799C247 95.5062 245.269 95.5304 242.247 96.1986Z" fill="#D9D9D9" fill-opacity="0.2"/>
</g>
<path d="M217.952 91.4737C217.952 91.4737 216.043 92.2513 214.292 93.7045C212.541 95.1577 211.425 96.8905 211.425 96.8905C211.425 96.8905 214.852 101.789 217.634 104.374C218.899 105.549 221.045 107.188 221.045 107.188L226.299 102.829C226.299 102.829 225.084 100.417 224.162 98.9567C222.134 95.7458 217.952 91.4737 217.952 91.4737Z" fill="#FCFCFF"/>
<mask id="mask6_1_1924" style="mask-type:alpha" maskUnits="userSpaceOnUse" x="211" y="91" width="16" height="17">
<path d="M217.952 91.4737C217.952 91.4737 216.043 92.2513 214.292 93.7045C212.541 95.1577 211.425 96.8905 211.425 96.8905C211.425 96.8905 214.852 101.789 217.634 104.374C218.899 105.549 221.045 107.188 221.045 107.188L226.299 102.829C226.299 102.829 225.084 100.417 224.162 98.9567C222.134 95.7458 217.952 91.4737 217.952 91.4737Z" fill="#FAFAFA"/>
</mask>
<g mask="url(#mask6_1_1924)">
<rect width="4.96537" height="17.5857" transform="matrix(-0.769549 0.638588 0.638588 0.769549 219.919 88.4976)" fill="#D9D9D9" fill-opacity="0.15"/>
</g>
<mask id="mask7_1_1924" style="mask-type:alpha" maskUnits="userSpaceOnUse" x="211" y="91" width="16" height="17">
<path d="M217.952 91.4737C217.952 91.4737 216.043 92.2513 214.292 93.7045C212.541 95.1577 211.425 96.8905 211.425 96.8905C211.425 96.8905 214.852 101.789 217.634 104.374C218.899 105.549 221.045 107.188 221.045 107.188L226.299 102.829C226.299 102.829 225.084 100.417 224.162 98.9567C222.134 95.7458 217.952 91.4737 217.952 91.4737Z" fill="white"/>
</mask>
<g mask="url(#mask7_1_1924)">
<path d="M220.43 100.054C217.408 100.722 215.494 101.633 214.427 102.116L216.083 104.236L226.775 101.793L226.353 99.2355C225.183 99.3617 223.452 99.386 220.43 100.054Z" fill="#D9D9D9" fill-opacity="0.2"/>
</g>
<path d="M170.277 174.645L195.75 106.365C195.805 106.216 196.001 106.183 196.103 106.306L216.749 131.186C216.822 131.274 216.81 131.405 216.722 131.477L196.843 147.974C196.828 147.986 196.815 148 196.804 148.016L174.882 179.945C174.805 180.058 174.64 180.066 174.553 179.96L170.312 174.85C170.265 174.793 170.251 174.715 170.277 174.645Z" fill="white"/>
<path d="M268.431 93.1956L196.625 105.639C196.468 105.667 196.399 105.853 196.501 105.975L217.147 130.856C217.22 130.944 217.35 130.956 217.438 130.883L237.318 114.387C237.332 114.374 237.349 114.364 237.366 114.357L272.791 98.699C272.916 98.6435 272.954 98.4834 272.866 98.3777L268.625 93.2674C268.578 93.2103 268.504 93.183 268.431 93.1956Z" fill="white"/>
<mask id="mask8_1_1924" style="mask-type:alpha" maskUnits="userSpaceOnUse" x="196" y="65" width="78" height="75">
<path d="M268.431 93.1956L196.625 105.639C196.468 105.666 196.399 105.853 196.501 105.975L217.147 130.856C217.22 130.944 217.35 130.956 217.438 130.883L237.318 114.387C237.332 114.374 237.349 114.364 237.366 114.357L272.791 98.699C272.916 98.6435 272.954 98.4833 272.866 98.3776L268.625 93.2673C268.578 93.2103 268.504 93.1829 268.431 93.1956Z" fill="white"/>
</mask>
<g mask="url(#mask8_1_1924)">
<path d="M237.383 124.224L205.953 99.4925C205.876 99.4322 205.768 99.4336 205.693 99.4959L200.408 103.881C200.321 103.954 200.308 104.085 200.381 104.172L225.352 134.264C225.425 134.351 225.555 134.364 225.643 134.291L237.387 124.545C237.488 124.461 237.486 124.305 237.383 124.224Z" fill="#7C7C7C" fill-opacity="0.1"/>
</g>
<path d="M214.241 113.91C222.9 124.344 230.898 133.736 236.979 141.687C246.476 154.106 251.294 163.01 246.634 166.877C241.975 170.743 234.112 164.367 223.657 152.742C216.963 145.299 209.207 135.706 200.549 125.272C192.086 115.073 184.095 105.726 177.881 97.7066C167.809 84.7071 162.406 75.1943 167.232 71.1905C172.057 67.1866 180.41 74.2506 191.329 86.5472C198.065 94.1333 205.778 103.711 214.241 113.91Z" fill="#A0D9F7"/>
<mask id="mask9_1_1924" style="mask-type:alpha" maskUnits="userSpaceOnUse" x="160" y="65" width="94" height="108">
<path d="M214.241 113.91C222.9 124.344 230.898 133.736 236.979 141.687C246.476 154.106 251.294 163.01 246.634 166.877C241.975 170.743 234.112 164.367 223.657 152.742C216.963 145.299 209.207 135.706 200.549 125.272C192.086 115.073 184.095 105.726 177.881 97.7066C167.809 84.7071 162.406 75.1943 167.232 71.1905C172.057 67.1866 180.41 74.2506 191.329 86.5472C198.065 94.1333 205.778 103.711 214.241 113.91Z" fill="#A0D9F7"/>
</mask>
<g mask="url(#mask9_1_1924)">
<rect x="166.095" y="69.9825" width="11.5859" height="136.754" transform="rotate(-39.6866 166.095 69.9825)" fill="#83C6EA"/>
</g>
<path d="M256.365 164.622L234.008 148.507C233.814 148.367 233.577 148.612 233.724 148.801L249.713 169.442C249.781 169.529 249.906 169.548 249.996 169.484L256.364 164.959C256.479 164.877 256.48 164.705 256.365 164.622Z" fill="#7C7C7C" fill-opacity="0.3"/>
<path d="M237.113 187.151L249.459 170.364C249.515 170.287 249.512 170.182 249.452 170.109L237.851 156.129C237.744 156.001 237.537 156.045 237.492 156.206L229.354 185.438C229.336 185.504 229.351 185.574 229.394 185.626L230.813 187.336C232.473 189.337 235.572 189.246 237.113 187.151Z" fill="white"/>
<path d="M268.715 160.927L249.939 169.966C249.854 170.007 249.751 169.984 249.69 169.911L238.09 155.931C237.983 155.803 238.065 155.607 238.231 155.593L268.463 152.985C268.53 152.979 268.596 153.007 268.64 153.059L270.058 154.769C271.719 156.77 271.059 159.799 268.715 160.927Z" fill="white"/>
<mask id="mask10_1_1924" style="mask-type:alpha" maskUnits="userSpaceOnUse" x="237" y="139" width="37" height="36">
<path d="M268.715 160.927L249.939 169.966C249.854 170.007 249.751 169.984 249.69 169.911L238.09 155.931C237.983 155.803 238.065 155.607 238.231 155.593L268.463 152.985C268.53 152.979 268.596 153.007 268.64 153.059L270.058 154.769C271.719 156.77 271.059 159.799 268.715 160.927Z" fill="white"/>
</mask>
<g mask="url(#mask10_1_1924)">
<path d="M273.788 171.98L246.607 150.432C246.534 150.374 246.432 150.372 246.357 150.426L238.628 156.065C238.53 156.136 238.514 156.276 238.593 156.368L261.277 182.424C261.351 182.508 261.479 182.519 261.566 182.447L273.792 172.302C273.893 172.218 273.891 172.062 273.788 171.98Z" fill="#7C7C7C" fill-opacity="0.14"/>
</g>
<path d="M169.407 82.5589C169.407 82.5589 169.4 79.4728 172.027 77.2929C174.654 75.1129 177.554 75.5295 177.554 75.5295L180.145 77.6806C180.145 77.6806 176.9 77.8195 174.273 79.9995C171.646 82.1794 171.043 85.5026 171.043 85.5026L169.407 82.5589Z" fill="black" fill-opacity="0.6"/>
<path d="M243.789 159.56C246.262 162.54 248.756 165.144 250.45 167.609C253.256 171.689 254.427 174.928 253.769 175.474C253.111 176.02 250.143 174.272 246.65 170.762C244.54 168.642 242.441 165.711 239.968 162.731C237.495 159.751 235.001 157.147 233.306 154.682C230.5 150.601 229.33 147.362 229.988 146.816C230.646 146.27 233.613 148.018 237.107 151.528C239.217 153.649 241.316 156.58 243.789 159.56Z" fill="white"/>
<mask id="mask11_1_1924" style="mask-type:alpha" maskUnits="userSpaceOnUse" x="229" y="146" width="25" height="30">
<path d="M243.789 159.56C246.262 162.54 248.756 165.144 250.45 167.609C253.256 171.689 254.427 174.928 253.769 175.474C253.111 176.02 250.143 174.272 246.65 170.762C244.54 168.642 242.441 165.711 239.968 162.731C237.495 159.75 235.001 157.146 233.306 154.682C230.5 150.601 229.33 147.362 229.988 146.816C230.646 146.27 233.613 148.018 237.107 151.528C239.217 153.648 241.316 156.58 243.789 159.56Z" fill="white"/>
</mask>
<g mask="url(#mask11_1_1924)">
<rect x="229.38" y="146.245" width="3.93092" height="38.8954" transform="rotate(-39.6866 229.38 146.245)" fill="#F4F4F4"/>
</g>
<path fill-rule="evenodd" clip-rule="evenodd" d="M32.0429 92.6214C30.0295 89.5028 26.5417 87.4408 22.5764 87.4408C16.3425 87.4408 11.2889 92.5369 11.2889 98.8232C11.2889 99.9695 11.4569 101.076 11.7695 102.12C10.5217 100.864 8.7997 100.088 6.89792 100.088C3.0883 100.088 0 103.203 0 107.044C0 110.748 2.86994 113.775 6.48938 113.988C6.48598 113.996 6.48429 114 6.48429 114H87.3332C87.4874 114 87.6358 113.995 87.7787 113.983C87.9902 113.995 88.2031 114 88.4174 114C94.9976 114 100.332 108.621 100.332 101.986C100.332 95.35 94.9976 89.9708 88.4174 89.9708C86.8508 89.9708 85.3548 90.2757 83.9846 90.8299C83.4627 84.6804 78.3473 79.8534 72.1139 79.8534C68.7296 79.8534 65.6748 81.2762 63.5059 83.5611C61.7766 76.3534 55.3374 71 47.6583 71C38.6538 71 31.3542 78.361 31.3542 87.4412C31.3542 89.2363 31.6395 90.9643 32.1669 92.5815C32.1255 92.5947 32.0841 92.608 32.0429 92.6214Z" fill="white"/>
<path fill-rule="evenodd" clip-rule="evenodd" d="M232.65 36.9998C232.671 37.0002 232.691 37.0003 232.712 37.0003C232.733 37.0003 232.754 37.0002 232.775 36.9998H276.002C276.085 36.9998 276.166 36.9969 276.243 36.991C276.357 36.9969 276.472 36.9998 276.588 36.9998C280.129 36.9998 283 34.2183 283 30.7872C283 27.356 280.129 24.5745 276.588 24.5745C275.744 24.5745 274.939 24.7323 274.201 25.0191C273.92 21.8392 271.167 19.3431 267.812 19.3431C265.99 19.3431 264.346 20.0792 263.179 21.2612C262.248 17.5339 258.782 14.7654 254.649 14.7654C249.803 14.7654 245.875 18.5716 245.875 23.2669C245.875 24.195 246.028 25.0884 246.312 25.9245C246.289 25.9315 246.266 25.9386 246.243 25.9457C245.16 24.3332 243.283 23.2671 241.148 23.2671C237.793 23.2671 235.074 25.9022 235.074 29.1527C235.074 29.7444 235.164 30.3156 235.331 30.8543C234.66 30.2069 233.734 29.8067 232.712 29.8067C230.662 29.8067 229 31.4171 229 33.4035C229 35.3184 230.544 36.8837 232.492 36.9941C232.491 36.9979 232.49 36.9998 232.49 36.9998H232.65Z" fill="white"/>
</svg>
