<svg width="37" height="46" viewBox="0 0 37 46" fill="none" xmlns="http://www.w3.org/2000/svg">
<rect x="0.781006" y="5.86279" width="36.2195" height="39.5122" rx="4.0755" fill="#2268EB"/>
<path d="M5.17114 9.15546H32.6102V34.3994L26.0248 40.9847H5.17114V9.15546Z" fill="white"/>
<path d="M26.0244 34.3993V40.9847L32.6098 34.3993H26.0244Z" fill="#CEDEFA"/>
<path fill-rule="evenodd" clip-rule="evenodd" d="M18.8906 0.375C16.3483 0.375 14.2547 2.29578 13.9817 4.76529H12.6967C11.5713 4.76529 10.6589 5.67762 10.6589 6.80304V11.3507H27.1224V6.80304C27.1224 5.67762 26.21 4.76529 25.0846 4.76529H23.7995C23.5265 2.29578 21.4329 0.375 18.8906 0.375ZM18.8905 5.86281C19.7998 5.86281 20.5369 5.12572 20.5369 4.21647C20.5369 3.30722 19.7998 2.57013 18.8905 2.57013C17.9813 2.57013 17.2442 3.30722 17.2442 4.21647C17.2442 5.12572 17.9813 5.86281 18.8905 5.86281Z" fill="#0C43AB"/>
<path fill-rule="evenodd" clip-rule="evenodd" d="M20.5371 16.8384H9.56154V19.0335H20.5371V16.8384ZM26.0249 22.3262H9.56152V24.5213H26.0249V22.3262Z" fill="#CEDEFA"/>
</svg>
