<svg width="18" height="17" viewBox="0 0 18 17" fill="none" xmlns="http://www.w3.org/2000/svg">
<path fill-rule="evenodd" clip-rule="evenodd" d="M12.9263 3.79899C12.4493 3.41015 11.9116 3.09217 11.3291 2.86154L10.5125 0H7.78926L6.9856 2.81603C6.36771 3.04575 5.7979 3.37304 5.29477 3.77877L2.3272 3.03491L0.988281 5.30465L3.11725 7.50373C3.06352 7.82831 3.03564 8.16118 3.03564 8.50001C3.03564 8.83884 3.06352 9.1717 3.11725 9.49628L0.988281 11.6954L2.3272 13.9651L5.29475 13.2212C5.79788 13.627 6.36771 13.9543 6.98561 14.184L7.78926 17L10.5125 17L11.3291 14.1385C11.9116 13.9079 12.4493 13.5899 12.9263 13.201L15.9745 13.9651L17.3134 11.6954L15.0937 9.40248C15.1377 9.10766 15.1605 8.80626 15.1605 8.50001C15.1605 8.19376 15.1377 7.89235 15.0937 7.59752L17.3134 5.30465L15.9745 3.03491L12.9263 3.79899ZM11.7987 8.17411C11.7987 9.63644 10.6133 10.8219 9.15095 10.8219C7.68862 10.8219 6.50317 9.63644 6.50317 8.17411C6.50317 6.71179 7.68862 5.52634 9.15095 5.52634C10.6133 5.52634 11.7987 6.71179 11.7987 8.17411Z" fill="#B0B0B0"/>
</svg>
