<svg width="16" height="16" viewBox="0 0 16 16" fill="none" xmlns="http://www.w3.org/2000/svg">
<path fill-rule="evenodd" clip-rule="evenodd" d="M8 16C3.58172 16 0 12.4183 0 8C0 3.58172 3.58172 0 8 0C12.4183 0 16 3.58172 16 8C16 12.4183 12.4183 16 8 16ZM5.6 4.8V6.4C5.6 7.72548 6.67452 8.8 8 8.8C9.32548 8.8 10.4 7.72548 10.4 6.4V4.8C10.4 3.47452 9.32548 2.4 8 2.4C6.67452 2.4 5.6 3.47452 5.6 4.8ZM8 14.3942C5.86341 14.3942 3.86773 13.328 2.68 11.552C6.05725 10.0017 9.94275 10.0017 13.32 11.552C12.1323 13.328 10.1366 14.3942 8 14.3942Z" fill="#666666"/>
</svg>
