<svg width="16" height="19" viewBox="0 0 16 19" fill="none" xmlns="http://www.w3.org/2000/svg">
<path fill-rule="evenodd" clip-rule="evenodd" d="M7.64976 2.04208L2.00748 3.73449L2.03121 6.09308L2.06263 8.02852V8.03664C2.06263 10.1363 3.10829 12.4195 4.44961 14.2187C5.11241 15.1077 5.81759 15.8376 6.44343 16.3342C6.75659 16.5826 7.03313 16.7594 7.25964 16.87C7.49794 16.9865 7.62025 17 7.64328 17C7.66608 17 7.79275 16.9858 8.04177 16.8655C8.27752 16.7517 8.56546 16.5707 8.89152 16.3182C9.54301 15.8135 10.2801 15.0748 10.9738 14.1802C12.3811 12.3654 13.4746 10.0884 13.4746 8.03664C13.4746 7.40173 13.5074 6.40087 13.5393 5.42523C13.559 4.82468 13.5784 4.23368 13.5896 3.74348L7.64976 2.04208ZM7.11727 0.113764C7.45648 0.0120182 7.81777 0.00977053 8.15822 0.107289L14.2594 1.85491C15.0502 2.08142 15.6093 2.81001 15.592 3.65346C15.5802 4.22911 15.558 4.90003 15.5361 5.56327C15.5051 6.49964 15.4746 7.42068 15.4746 8.03664C15.4746 10.7175 14.0925 13.4221 12.5543 15.4058C11.7751 16.4106 10.9219 17.2753 10.1162 17.8993C9.71372 18.2111 9.30639 18.4758 8.91149 18.6665C8.52987 18.8508 8.09052 19 7.64328 19C7.19626 19 6.76039 18.852 6.38176 18.6671C5.99133 18.4763 5.59218 18.2118 5.20027 17.9009C4.41597 17.2785 3.5935 16.4165 2.84617 15.4141C1.36874 13.4324 0.0653349 10.7374 0.0626364 8.04501L0.0313274 6.1163L0.00644226 3.64184C-0.00184946 2.81798 0.535671 2.08793 1.32483 1.85122L7.11727 0.113764Z" fill="black"/>
<path d="M9.0001 12.275H6.6001V10.275H4.6001V7.875H6.6001V5.875H9.0001V7.875H11.0001V10.275H9.0001V12.275Z" fill="black"/>
</svg>
