<svg width="14" height="18" viewBox="0 0 14 18" fill="none" xmlns="http://www.w3.org/2000/svg">
<path fill-rule="evenodd" clip-rule="evenodd" d="M12 6H2L2 16H12V6ZM2 4C0.895431 4 0 4.89543 0 6V16C0 17.1046 0.89543 18 2 18H12C13.1046 18 14 17.1046 14 16V6C14 4.89543 13.1046 4 12 4H2Z" fill="white"/>
<path fill-rule="evenodd" clip-rule="evenodd" d="M9.99994 2.89999C9.99994 2.93347 9.99937 2.9668 9.99825 3H10C10.5523 3 11 3.44772 11 4V7H3V4C3 3.44772 3.44772 3 4 3H4.20164C4.20052 2.9668 4.19995 2.93347 4.19995 2.89999C4.19995 1.29837 5.49832 0 7.09995 0C8.70157 0 9.99994 1.29837 9.99994 2.89999ZM7.10005 3.2222C7.63393 3.2222 8.06672 2.78941 8.06672 2.25554C8.06672 1.72166 7.63393 1.28887 7.10005 1.28887C6.56618 1.28887 6.13339 1.72166 6.13339 2.25554C6.13339 2.78941 6.56618 3.2222 7.10005 3.2222Z" fill="white"/>
</svg>
