<svg width="14" height="16" viewBox="0 0 14 16" fill="none" xmlns="http://www.w3.org/2000/svg">
<path fill-rule="evenodd" clip-rule="evenodd" d="M2.85183 5L2.15953 14H11.84L11.1477 5H2.85183ZM1.9258 3C1.40327 3 0.968825 3.40231 0.928748 3.9233L0.0825947 14.9233C0.0379182 15.5041 0.497139 16 1.07965 16H12.9199C13.5024 16 13.9616 15.5041 13.9169 14.9233L13.0708 3.9233C13.0307 3.40231 12.5963 3 12.0737 3H1.9258Z" fill="black"/>
<path fill-rule="evenodd" clip-rule="evenodd" d="M6 1.75C5.86193 1.75 5.75 1.86193 5.75 2V3H4.25V2C4.25 1.0335 5.0335 0.25 6 0.25H8C8.9665 0.25 9.75 1.0335 9.75 2V3H8.25V2C8.25 1.86193 8.13807 1.75 8 1.75H6Z" fill="black"/>
</svg>
