<svg width="22" height="28" viewBox="0 0 22 28" fill="none" xmlns="http://www.w3.org/2000/svg">
<path fill-rule="evenodd" clip-rule="evenodd" d="M18.5 9.5H3.5L3.5 24.5H18.5V9.5ZM3.5 6.5C1.84315 6.5 0.5 7.84315 0.5 9.5V24.5C0.5 26.1569 1.84315 27.5 3.5 27.5H18.5C20.1569 27.5 21.5 26.1569 21.5 24.5V9.5C21.5 7.84315 20.1569 6.5 18.5 6.5H3.5Z" fill="black"/>
<path fill-rule="evenodd" clip-rule="evenodd" d="M15.4999 4.84999C15.4999 4.9002 15.4991 4.95021 15.4974 5H16C16.5523 5 17 5.44772 17 6V11H5V6C5 5.44772 5.44772 5 6 5H6.80246C6.80078 4.95021 6.79993 4.9002 6.79993 4.84999C6.79993 2.44756 8.74748 0.5 11.1499 0.5C13.5524 0.5 15.4999 2.44756 15.4999 4.84999ZM11.1501 5.3333C11.9509 5.3333 12.6001 4.68411 12.6001 3.8833C12.6001 3.08249 11.9509 2.43331 11.1501 2.43331C10.3493 2.43331 9.70008 3.08249 9.70008 3.8833C9.70008 4.68411 10.3493 5.3333 11.1501 5.3333Z" fill="black"/>
</svg>
