<svg width="23" height="23" viewBox="0 0 23 23" fill="none" xmlns="http://www.w3.org/2000/svg">
<path fill-rule="evenodd" clip-rule="evenodd" d="M10.0049 17.5C14.147 17.5 17.5049 14.1421 17.5049 10C17.5049 5.85786 14.147 2.5 10.0049 2.5C5.86275 2.5 2.50488 5.85786 2.50488 10C2.50488 14.1421 5.86275 17.5 10.0049 17.5ZM10.0049 20C15.5277 20 20.0049 15.5228 20.0049 10C20.0049 4.47715 15.5277 0 10.0049 0C4.48204 0 0.00488281 4.47715 0.00488281 10C0.00488281 15.5228 4.48204 20 10.0049 20Z" fill="black"/>
<path fill-rule="evenodd" clip-rule="evenodd" d="M15.8886 16.1161C16.3767 15.6279 17.1682 15.6279 17.6563 16.1161L21.8886 20.3483C22.3767 20.8364 22.3767 21.6279 21.8886 22.1161C21.4004 22.6042 20.609 22.6042 20.1208 22.1161L15.8886 17.8838C15.4004 17.3957 15.4004 16.6042 15.8886 16.1161Z" fill="black"/>
</svg>
