<svg width="23" height="28" viewBox="0 0 23 28" fill="none" xmlns="http://www.w3.org/2000/svg">
<path d="M8.90647 24.7746C8.90647 26.1714 10.0366 27.3016 11.4335 27.3016C12.8303 27.3016 13.9604 26.1714 13.9604 24.7746H8.90647ZM11.4335 5.71429C14.9382 5.71429 17.7827 8.55873 17.7827 12.0635V20.9524H5.08425V12.0635C5.08425 8.55873 7.92869 5.71429 11.4335 5.71429ZM11.4335 0C10.3795 0 9.52869 0.850794 9.52869 1.90476V3.39048C5.54139 4.25397 2.54457 7.80953 2.54457 12.0635V19.6825L0.00488281 22.2222V23.4921H22.862V22.2222L20.3223 19.6825V12.0635C20.3223 7.80953 17.3255 4.25397 13.3382 3.39048V1.90476C13.3382 0.850794 12.4874 0 11.4335 0Z" fill="black"/>
</svg>
