<svg width="205" height="179" viewBox="0 0 205 179" fill="none" xmlns="http://www.w3.org/2000/svg">
<ellipse cx="190" cy="-8.5" rx="188" ry="187.5" fill="#D9E5F3"/>
<rect x="2.62378" y="-4.64203" width="191.549" height="122.591" transform="rotate(-24.3178 2.62378 -4.64203)" fill="#8E909E" fill-opacity="0.2"/>
<rect x="0.308594" y="-7.40601" width="191.549" height="122.591" transform="rotate(-24.3178 0.308594 -7.40601)" fill="white"/>
<rect x="9.43213" y="-3.96161" width="177.757" height="108.8" transform="rotate(-24.3178 9.43213 -3.96161)" fill="#CFEAFF"/>
<path d="M34.9463 11.4656C34.0636 12.9354 30.4001 14.462 28.6788 15.0415C24.6941 16.0985 29.8116 20.1818 31.1704 19.5678C32.5291 18.9538 32.2299 17.3041 34.1147 17.1961C35.9996 17.0881 36.9356 14.8802 40.2706 13.3731C43.6057 11.866 43.9169 13.2128 44.3278 15.1096C44.7386 17.0063 44.121 17.2854 46.4488 19.8034C44.2622 24.5102 45.8644 25.4223 46.6696 26.5459C47.4748 27.6695 47.7337 27.255 48.6067 28.1992C49.305 28.9546 50.0378 30.3787 50.3169 30.9963C50.843 31.5023 52.1934 32.6472 53.3858 33.1794C54.8763 33.8445 52.9393 32.1912 52.6043 31.4501C52.2694 30.7089 51.0259 29.9322 50.6352 29.0675C50.2445 28.2029 50.874 27.6209 51.0973 28.115C51.3205 28.6091 53.3015 30.6888 54.9595 31.7245C56.6175 32.7602 55.6852 33.3303 56.3229 34.0833C56.9607 34.8363 60.854 34.5644 62.0453 33.5798C63.2365 32.5953 63.8505 33.954 64.6356 34.0455C65.4207 34.137 66.7117 33.7023 67.8875 34.6584C69.0633 35.6146 68.4457 35.8936 71.3864 35.1597C73.739 34.5726 73.4641 35.8075 73.0325 36.4983C73.1628 36.7865 73.3213 37.7957 72.9137 39.5269C72.4041 41.6909 76.9398 45.1448 77.96 45.4275C78.9802 45.7102 81.1085 47.1284 81.7143 47.1521C82.32 47.1759 83.611 46.7412 84.7191 47.8767C85.8272 49.0122 88.4744 54.2119 88.953 55.9294C89.4316 57.6468 91.1656 59.8381 92.3532 60.4914C93.5409 61.1446 94.0872 62.6827 95.016 63.7505C95.9447 64.8182 97.9614 65.9894 98.7025 65.6544C99.4436 65.3195 100.273 65.8374 101.743 65.4704C103.213 65.1035 102.767 64.1153 102.452 64.4063C102.137 64.6973 100.814 64.4027 99.8499 64.2435C98.8855 64.0843 98.7537 62.8052 98.6777 61.6496C98.6017 60.4939 97.2228 60.0758 97.5613 59.1791C97.8998 58.2824 95.8155 57.2906 97.1861 56.3738C98.5567 55.4569 98.3215 55.2657 97.9308 54.401C97.5401 53.5364 98.4047 53.1457 98.5081 52.0577C98.6114 50.9698 98.874 48.9175 98.5391 48.1764C98.2042 47.4352 97.0961 46.2998 97.4785 45.8295C97.861 45.3591 99.2874 44.5658 100.052 43.6252C100.817 42.6845 99.645 40.0906 99.0191 39.0347C98.3933 37.9788 98.4289 37.0703 99.0703 36.1854C99.7117 35.3006 99.3685 33.2245 98.0252 31.8978C96.682 30.5712 94.3909 31.7552 93.594 31.9666C92.797 32.178 90.5653 31.8478 89.4655 32.0473C88.3657 32.2468 88.1223 30.7206 86.9904 30.1908C85.8586 29.6611 85.0058 29.749 84.3882 30.0281C83.7706 30.3071 81.8537 29.6859 81.1043 28.6859C80.5047 27.8858 79.1252 29.134 78.5103 29.8581C77.3904 29.0255 75.9639 29.8188 74.2785 31.0266C72.064 32.6137 73.7131 33.0671 72.8485 33.4578C72.1568 33.7704 70.39 34.2713 69.593 34.4827C69.3923 33.9288 68.8769 32.6346 68.4208 31.8887C67.8508 30.9564 67.4802 31.1238 66.492 31.5704C65.5039 32.0169 65.5633 30.5026 65.7106 29.8411C65.8579 29.1796 65.5348 28.1356 64.8733 27.9883C64.2118 27.841 63.7022 30.0049 63.5668 30.3636C63.4314 30.7223 62.3755 31.3482 61.7579 31.6273C61.1403 31.9064 59.7412 30.4562 59.151 28.4917C58.5607 26.5272 60.2378 23.9844 61.1345 24.323C62.0312 24.6615 63.1109 23.4299 63.0788 22.7006C63.0468 21.9714 65.358 21.8194 65.9519 22.146C66.5457 22.4727 66.7333 23.8753 67.5065 24.2697C68.2797 24.664 67.6218 22.8789 67.3308 22.5641C67.0398 22.2494 66.7964 20.7232 66.7643 19.994C66.7323 19.2647 67.1824 18.6151 68.3618 17.9334C69.5412 17.2517 67.8832 16.2159 68.8393 15.0402C69.7955 13.8644 67.9581 12.761 69.9903 11.9914C72.0225 11.2218 70.4203 10.3096 70.8146 9.53645C71.209 8.76327 73.2494 9.32866 73.1378 9.08162C73.0261 8.83458 74.1616 7.72649 74.7353 7.02102C75.3089 6.31555 73.5915 6.79414 73.0535 6.59103C72.6231 6.42854 72.8552 4.94528 73.0251 4.22396C73.8711 3.79206 75.6078 3.02707 75.7865 3.42234C76.0097 3.91643 74.727 5.68605 77.1297 4.74903C79.0519 3.99941 78.435 2.91962 77.8863 2.47343C77.3855 2.35267 76.3958 1.80828 76.4433 0.59684C76.5028 -0.917468 74.4468 0.457825 74.897 -0.19183C75.3471 -0.841486 73.6452 -2.30358 73.2188 -2.25965C72.7924 -2.21571 72.7247 -2.03637 72.3743 -0.836814C72.0239 0.362745 71.6368 -2.13973 70.1783 -2.07564C69.0115 -2.02436 68.3057 -0.733594 68.1544 0.0289007C67.8144 -0.0653321 67.0665 -0.0744582 66.7957 0.6429C66.4572 1.5396 67.9715 1.59902 66.8681 3.43635C65.7647 5.27368 68.418 2.5872 67.0878 5.56827C65.7575 8.54934 66.2505 3.71545 65.3062 4.58838C64.362 5.4613 62.3216 4.89591 61.1458 3.93978C59.97 2.98366 61.6435 2.07868 62.1613 1.24969C62.6792 0.420693 63.6673 -0.0258522 64.779 -0.528217C65.8907 -1.03058 66.8789 -1.47713 66.3528 -1.98302C65.8267 -2.48892 66.6474 -3.30618 67.221 -4.01165C67.7947 -4.71713 67.157 -5.47007 68.7627 -6.1957C70.3685 -6.92134 70.891 -4.77754 69.2853 -4.05191C67.6795 -3.32627 67.9586 -2.70866 68.3291 -2.87612C68.6997 -3.04357 69.9349 -3.60175 71.3019 -2.88086C72.3955 -2.30415 72.9263 -3.56535 73.055 -4.26804C72.8662 -5.12471 72.6138 -6.6269 73.1144 -5.78227C73.7403 -4.72649 74.2582 -5.55539 74.5967 -6.45209C74.8675 -7.16945 73.7024 -7.88249 73.086 -8.14934L70.4838 -8.31214C69.6429 -8.52713 67.8241 -8.86544 67.2758 -8.49869C66.7276 -8.13195 65.8098 -6.69581 65.4194 -6.02359L64.9538 -3.43314L63.0725 -4.96304L61.6781 -3.44046L62.2363 -2.20514L58.5307 -0.53059L55.4426 0.864865C47.7119 1.53214 50.1312 3.26496 45.8994 4.43353C38.737 6.41136 36.0497 9.62823 34.9463 11.4656Z" fill="#85C2F1"/>
<path d="M76.9178 -16.1283C75.7035 -14.8656 73.4529 -13.3726 72.4794 -12.7839C72.9817 -11.6722 73.4199 -12.0191 74.4758 -12.645C75.5317 -13.2709 77.6993 -14.3991 77.2812 -13.02C76.8632 -11.641 79.2622 -10.9403 78.5092 -10.3026C77.7562 -9.66479 77.3061 -9.01504 77.8084 -7.90344C78.3107 -6.79184 79.3191 -6.20627 81.4949 -5.99955C83.6708 -5.79283 81.3906 -9.52217 82.8728 -10.192C84.3551 -10.8618 85.6259 -12.3287 85.7056 -12.8107C85.7852 -13.2927 88.4028 -15.0709 89.4706 -15.9996C90.5383 -16.9284 88.5217 -18.0995 89.6334 -18.6019C90.7451 -19.1042 89.1547 -20.3193 90.1666 -21.3717C91.1785 -22.4241 92.067 -23.4204 90.776 -22.9858C89.4849 -22.5511 88.9909 -22.3277 85.9266 -21.538C82.8624 -20.7483 78.4358 -17.7067 76.9178 -16.1283Z" fill="#85C2F1"/>
<path d="M88.9993 -13.8478C88.9864 -13.8437 88.9736 -13.8397 88.961 -13.8357C88.9577 -13.9094 88.9718 -13.9044 88.9993 -13.8478C90.099 -14.1966 92.3365 -15.0084 92.7901 -15.5661C93.3639 -16.2714 94.3164 -15.8093 93.3484 -14.3308C92.3803 -12.8523 90.0307 -11.4686 89.3517 -12.9712C89.1961 -13.3155 89.0624 -13.7179 88.9993 -13.8478Z" fill="#85C2F1"/>
<path d="M107.657 -21.838C107.509 -21.1765 107.091 -19.7976 106.597 -19.5743C105.98 -19.2952 106.27 -18.9805 106.741 -18.598C107.211 -18.2156 107.57 -18.0802 107.299 -17.3628C107.028 -16.6454 107.598 -15.7131 106.598 -14.9637C105.598 -14.2143 106.207 -15.8283 104.705 -16.1906C103.203 -16.5529 104.275 -14.5088 102.896 -14.927C101.517 -15.3451 100.632 -15.9864 101.859 -17.8796C103.086 -19.7727 102.461 -20.8283 104.787 -22.9211C107.114 -25.0139 110.469 -25.4892 114.33 -26.49C118.192 -27.4909 122.339 -31.1503 122.375 -32.0589C122.41 -32.9675 124.431 -33.4339 125.825 -34.9566C127.219 -36.4794 128.426 -39.4046 132.164 -40.3499C135.902 -41.2952 137.066 -40.0362 139.683 -41.8141C142.301 -43.592 145.194 -43.1145 146.182 -43.5611C147.171 -44.0076 146.289 -46.2868 153.594 -46.9102C160.898 -47.5335 161.535 -51.3911 165.798 -51.8304C170.062 -52.2698 171.489 -53.0631 172.138 -52.6129C172.788 -52.1628 172.461 -51.569 170.621 -51.0345C168.78 -50.5001 168.453 -49.9063 169.788 -49.9146C171.123 -49.9229 170.314 -49.4086 169.84 -48.1532C169.366 -46.8979 167.481 -46.7898 168.119 -46.0368C168.757 -45.2838 170.048 -45.7185 170.674 -44.6626C171.174 -43.8179 171.38 -42.552 171.42 -42.0247C170.527 -42.4642 168.535 -43.3391 167.709 -43.3229C166.677 -43.3028 165.111 -45.1236 165.684 -45.829C166.258 -46.5345 163.823 -46.3267 163.126 -45.5654C162.429 -44.8041 165.155 -44.6972 163.302 -43.8599C161.449 -43.0226 158.903 -43.0619 158.731 -41.7946C158.56 -40.5274 158.433 -38.8337 159.848 -39.3242C161.262 -39.8147 161.669 -40.8907 163.103 -40.3491C164.251 -39.9158 166.369 -39.0481 167.284 -38.6684L168.158 -37.5636C168.225 -37.4902 168.281 -37.4186 168.324 -37.3536L168.158 -37.5636C167.755 -38.0058 166.942 -38.514 165.925 -38.0544C164.443 -37.3846 167.432 -34.7193 166.691 -34.3844C165.95 -34.0495 165.5 -33.3998 165.353 -32.7383C165.205 -32.0768 165.09 -30.686 166.246 -30.7619C167.401 -30.8379 168.151 -29.8379 167.701 -29.1882C167.34 -28.6685 165.51 -29.5371 164.64 -30.0363C164.293 -30.4746 163.521 -31.1965 163.205 -30.5779C162.811 -29.8048 161.982 -30.3226 161.444 -30.5257C160.906 -30.7288 161.484 -28.4615 161.911 -28.5055C162.337 -28.5494 163.484 -29.9603 163.763 -29.3427C164.042 -28.7251 162.839 -27.4377 163.748 -27.402C164.656 -27.3664 165.776 -26.5338 166.538 -25.8366C167.299 -25.1394 168.73 -22.9599 166.547 -19.891C164.364 -16.8221 164.714 -18.0216 163.862 -17.9338C163.009 -17.8459 162.826 -16.2758 163.599 -15.8814C164.372 -15.4871 165.819 -15.2483 166.277 -14.563C166.736 -13.8777 167.23 -14.101 167.385 -13.4276C167.541 -12.7541 167.322 -10.2754 166.47 -10.1876C165.617 -10.0997 164.588 -11.7174 163.544 -11.3943C162.5 -11.0713 163.126 -10.0154 163.585 -9.33012C164.043 -8.64481 165.557 -8.58538 166.139 -7.95589C166.721 -7.3264 167.73 -6.74084 167.785 -6.61731C167.83 -6.5185 167.937 -5.84294 167.985 -5.51751C167.402 -5.60106 166.166 -5.85581 165.889 -6.20643C165.542 -6.64469 164.243 -7.545 163.76 -7.62459C163.278 -7.70418 162.92 -7.83959 162.64 -8.45719C162.361 -9.0748 162.409 -10.2862 161.939 -10.6687C161.468 -11.0511 160.157 -11.6486 160.125 -12.3778C160.093 -13.1071 159.743 -11.9075 159.248 -11.6842C158.754 -11.461 158.396 -11.5964 158.228 -11.9669C158.061 -12.3375 158.073 -12.6404 157.176 -12.9789C156.279 -13.3174 155.518 -14.0146 155.048 -14.397C154.577 -14.7795 154.598 -13.7474 153.609 -13.3008C152.621 -12.8543 153.765 -12.6274 152.853 -11.0252C151.941 -9.42307 152.59 -8.97292 152.084 -8.44678C151.679 -8.02588 152.152 -7.08925 152.439 -6.67355C152.782 -6.13433 153.274 -4.76015 152.5 -3.57724C151.532 -2.09859 150.73 -4.85999 149.06 -5.59284C147.39 -6.32569 146.306 -8.06688 146.151 -8.7403C145.995 -9.41373 145.848 -8.75218 144.401 -8.99095C142.954 -9.22972 142.058 -9.56823 141.655 -10.13C141.333 -10.5795 140.697 -9.94516 140.42 -9.57184C139.626 -8.91546 137.847 -7.69512 137.085 -8.06474C136.132 -8.52678 135.256 -7.8332 134.291 -7.99237C133.327 -8.15155 132.195 -8.68129 131.781 -8.94022C131.366 -9.19914 130.792 -8.49367 130.96 -8.12311C131.127 -7.75254 132.618 -7.08739 133.044 -7.13133C133.471 -7.17526 134.176 -6.60159 134.22 -6.1752C134.264 -5.74882 135.196 -6.31889 135.814 -6.59798C136.432 -6.87707 134.885 -7.66574 136.814 -7.34739C138.743 -7.02903 138.946 -7.56705 139.09 -6.59077C139.233 -5.61448 139.027 -3.43863 137.25 -1.44574C135.473 0.547168 135.178 1.87025 134.505 2.02582C133.832 2.18139 133.003 1.66353 132.6 1.10174C132.197 0.539951 131.56 -0.213062 130.966 -0.539694C130.372 -0.866323 129.945 -0.822392 129.463 -0.901978C128.981 -0.981568 128.837 -1.95786 128.311 -2.46383C127.785 -2.9698 126.315 -2.60284 126.091 -3.09692C125.868 -3.59101 124.704 -4.85 124.445 -4.4355C124.186 -4.021 124.175 -3.71814 124.521 -3.27987C124.868 -2.8416 126.391 -1.44721 127.052 -1.29992C127.714 -1.15263 127.837 -1.20845 128.116 -0.590839C128.396 0.026767 129.392 0.915189 129.874 0.994776C130.356 1.07437 130.568 1.87131 130.926 2.00672C131.285 2.14213 132.688 1.95451 133.27 2.584C133.852 3.21349 133.896 3.63987 134.951 3.01399C136.007 2.3881 137.422 1.89763 137.569 1.23608C137.687 0.70685 138.014 1.23333 138.163 1.56272C138.473 1.91863 138.986 2.85684 138.562 3.76233C138.032 4.89419 139.208 5.85031 137.611 7.91091C136.722 8.90736 137.177 11.2305 136.4 12.474C135.623 13.7175 137.648 16.2236 138.186 16.4267C138.724 16.6298 138.948 17.1239 139.171 17.618C139.394 18.112 140.267 19.0563 139.861 20.1323C139.455 21.2084 138.016 22.3046 138.16 23.2809C138.304 24.2571 139.324 24.5398 139.591 25.4603C139.858 26.3808 138.938 26.648 138.735 27.186C138.532 27.724 139.225 28.6006 138.763 29.5531C138.301 30.5056 138.987 30.0472 138.636 31.2467C138.286 32.4463 138.306 33.4784 137.25 34.1043C136.194 34.7301 134.744 36.1292 134.082 35.9819C133.421 35.8346 133.445 35.2289 133.245 34.1291C133.046 33.0293 132.782 30.471 132.156 29.4151C131.53 28.3592 128.421 24.112 126.683 23.5585C124.946 23.005 124.687 23.4195 123.838 21.8695C122.989 20.3195 120.466 19.6745 119.996 19.2921C119.525 18.9096 119.37 18.2362 119.461 17.4512C119.553 16.6661 119.242 15.3192 118.321 15.5865C117.401 15.8537 117.309 16.6387 116.357 16.1767C115.404 15.7146 114.675 15.7467 114.045 16.3286C113.416 16.9106 113.245 18.1779 112.269 18.3215C111.292 18.4652 110.472 19.2823 110.033 19.6291C109.595 19.9759 108.686 19.9403 107.734 19.4782C106.781 19.0162 103.836 16.7773 102.915 17.0445C101.995 17.3117 101.237 14.9767 101.855 14.6976C102.473 14.4185 101.568 12.745 100.85 12.4742C100.133 12.2034 100.18 10.992 100.407 9.84823C100.634 8.70449 100.829 6.83151 101.426 5.52031C102.024 4.20912 101.565 3.52381 101.972 2.44777C102.378 1.37173 102.266 1.12469 103.378 0.622322C104.49 0.119957 105.366 -0.57363 105.446 -1.05583C105.525 -1.53803 108.402 -3.73044 109.558 -3.80642C110.713 -3.8824 110.801 -3.02963 111.024 -2.53555C111.248 -2.04146 111.965 -1.77065 112.336 -1.9381C112.706 -2.10556 113.2 -2.32883 113.862 -2.18154C114.523 -2.03425 114.994 -1.6518 115.611 -1.93089C116.229 -2.20998 115.738 -3.62454 116.906 -4.00338C118.073 -4.38222 120.855 -4.15173 121.182 -4.74557C121.508 -5.33941 122.002 -5.56268 122.496 -5.78595C122.99 -6.00923 123.082 -6.79429 123.118 -7.70287C123.153 -8.61145 122.639 -9.42029 121.762 -8.7267C120.886 -8.03311 118.965 -7.0165 118.081 -7.65787C117.196 -8.29925 116.773 -9.89315 116.02 -9.25537C115.267 -8.6176 116.499 -7.53796 116.351 -6.87642C116.204 -6.21488 115.778 -6.17095 114.713 -6.88002C113.649 -7.58911 113.594 -7.71263 113.079 -8.52146C112.565 -9.33029 109.604 -9.62848 109.166 -9.28169C108.728 -8.93489 108.951 -8.44081 109.433 -8.36122C109.915 -8.28163 111.832 -7.66042 112.191 -7.52501C112.55 -7.3896 112.335 -6.54872 112.793 -5.86341C113.251 -5.1781 111.163 -4.53205 111.052 -4.7791C110.94 -5.02614 111.008 -5.20548 111.502 -5.42875C111.996 -5.65203 113.219 -5.90734 111.605 -6.51668C109.991 -7.126 108.768 -6.87068 108.298 -7.25313C107.827 -7.63558 107.616 -8.43253 107.289 -7.83869C106.963 -7.24485 106.461 -7.0859 105.333 -5.91349C104.827 -5.38736 105.397 -4.45501 104.262 -3.34692C104.541 -2.72931 104.948 -1.36654 104.346 -0.856329C103.593 -0.218558 103.087 0.307578 102.481 0.283806C101.876 0.260036 101.19 0.718467 100.887 0.706582C100.584 0.694697 99.6439 -0.0702026 99.7353 -0.855263C99.8268 -1.64033 99.2449 -2.26982 99.3244 -2.75202C99.404 -3.23422 99.1689 -3.42544 100.281 -3.92781L102.751 -5.04417C102.554 -5.69899 102.04 -7.01339 101.555 -7.0324C100.949 -7.05617 99.8376 -6.55381 99.7937 -6.98019C99.7498 -7.40657 101.108 -8.02057 101.929 -8.83768C102.75 -9.65479 103.391 -10.5396 103.483 -11.3247C103.556 -11.9527 104.121 -12.6545 104.395 -12.9268C104.068 -13.8699 103.649 -15.5647 104.59 -14.7998C105.766 -13.8437 104.957 -13.3295 106.754 -14.2902C108.551 -15.251 109.101 -15.3508 109.495 -16.124C109.889 -16.8971 109.072 -17.7179 110.005 -18.2879C110.937 -18.858 109.546 -18.9732 108.885 -19.1205C108.223 -19.2678 107.159 -19.9766 107.8 -20.8616C108.313 -21.5695 107.918 -21.8075 107.657 -21.838Z" fill="#85C2F1"/>
<path d="M187.959 1.81826C188.246 1.92658 189.747 1.60531 190.462 1.43114L190.186 -0.824356C190.481 -0.610563 191.215 -0.128821 191.789 0.0878066C192.506 0.358591 193.379 1.30289 194.59 1.35043C195.802 1.39797 197.113 1.99541 197.647 3.83635C198.075 5.3091 197.648 6.91009 197.381 7.5265C196.865 7.80955 195.618 8.56141 194.763 9.3044C193.696 10.2332 191.659 8.02993 190.918 8.36492C190.176 8.69992 190.053 8.75557 188.921 8.22582C187.789 7.69608 185.463 9.78873 184.248 11.379C183.033 12.9693 182.203 12.4515 182.004 11.3517C181.804 10.2519 179.943 9.75423 179.923 8.72212C179.903 7.69002 181.688 7.03209 182.509 6.21498C183.329 5.39787 183.345 3.45718 183.66 3.1662C183.911 2.93342 184.819 2.98925 185.242 3.04626C185.321 2.56406 185.788 1.4904 187.019 1.05336C188.557 0.507061 187.6 1.68285 187.959 1.81826Z" fill="#85C2F1"/>
<path d="M167.591 -4.74434C166.102 -5.14249 163.599 -5.56831 162.534 -5.73145C163.602 -5.12332 166.139 -3.61227 167.743 -2.43309C169.748 -0.959106 172.138 -1.59327 174.135 -1.45426C176.131 -1.31524 179.367 -3.37224 181.084 -3.85083C182.802 -4.32943 182.638 -6.33782 181.773 -5.94709C180.908 -5.55636 177.721 -4.71081 175.721 -3.212C174.12 -2.01295 171.754 -2.11388 170.771 -2.31424C170.332 -2.95837 169.08 -4.34618 167.591 -4.74434Z" fill="#85C2F1"/>
<path d="M142.467 18.6572C143.114 18.2458 143.265 16.363 143.259 15.473C143.719 15.6124 144.678 16.1112 144.837 16.991C145.037 18.0908 146.273 22.1433 145.552 23.5102C144.832 24.8771 144.058 24.4829 143.062 23.5945C142.065 22.7061 143.245 22.0243 142.774 21.6419C142.304 21.2594 141.658 19.1715 142.467 18.6572Z" fill="#85C2F1"/>
<path d="M68.3002 25.6959C67.1334 25.7471 66.3159 26.7909 66.053 27.3063C66.251 27.4152 66.7975 27.5055 67.3999 26.9952C68.1528 26.3573 69.4202 26.5286 70.4285 27.1141C71.2352 27.5826 71.7687 26.459 71.9346 25.8386C71.2093 25.7696 69.467 25.6446 68.3002 25.6959Z" fill="#85C2F1"/>
<path d="M75.0426 25.4753C74.5229 25.1151 73.3596 25.5912 72.843 25.8743L72.0662 27.1178L73.4012 27.1095C74.1649 26.7148 75.5623 25.8354 75.0426 25.4753Z" fill="#85C2F1"/>
<ellipse cx="170.591" cy="111.432" rx="25.4086" ry="26.1864" fill="#8E909E" fill-opacity="0.2"/>
<ellipse cx="158.591" cy="93.4323" rx="25.4086" ry="26.1864" fill="white"/>
<ellipse cx="158.44" cy="93.9672" rx="19.3633" ry="19.7506" fill="#5D4136"/>
<path fill-rule="evenodd" clip-rule="evenodd" d="M176.392 101.417C177.302 99.0929 177.803 96.5514 177.803 93.8887C177.803 82.825 169.147 73.8561 158.47 73.8561C150.295 73.8561 143.305 79.1134 140.477 86.5431C144.263 82.4645 149.671 79.9124 155.675 79.9124C167.124 79.9124 176.406 89.1942 176.406 100.644C176.406 100.903 176.401 101.161 176.392 101.417Z" fill="#270F0F"/>
<path d="M127.23 77.519C125.446 76.2689 125.013 73.8092 126.263 72.0252C127.513 70.2412 129.973 69.8084 131.757 71.0585L142.54 78.6149L138.013 85.0754L127.23 77.519Z" fill="white"/>
</svg>
