<svg width="20" height="20" viewBox="0 0 20 20" fill="none" xmlns="http://www.w3.org/2000/svg">
<path d="M3.33032 16.7652L3.03334 16.4682C1.36457 14.7994 1.35678 12.0778 3.03174 10.4028L8.97538 4.45919C9.17327 4.2613 9.48431 4.26138 9.6823 4.45937C9.88029 4.65736 9.88038 4.96841 9.68249 5.16629L3.73885 11.1099C2.45259 12.3962 2.46021 14.4816 3.74007 15.7615L4.02999 16.0514C5.31692 17.3383 7.40234 17.3318 8.68153 16.0526L16.0386 8.6955C16.7383 7.99583 18.1941 6.20064 16.589 4.5955C16.5465 4.53894 16.0162 3.85309 15.1254 3.7963C14.3549 3.74661 13.5137 4.16347 12.6303 5.04689L6.44639 11.2308C5.63364 12.0436 5.43602 13.217 6.00877 13.7898C6.58153 14.3625 7.75496 14.1649 8.56771 13.3521L13.0767 8.84317C13.2746 8.64529 13.5856 8.64537 13.7836 8.84336C13.9816 9.04135 13.9746 9.35946 13.7838 9.55028L9.27482 14.0592C8.05923 15.2748 6.27078 15.4794 5.29497 14.5036C4.31916 13.5278 4.5237 11.7393 5.73928 10.5237L11.9232 4.33979C13.0257 3.23728 14.1354 2.72152 15.2171 2.79957C16.5602 2.89889 17.331 3.90999 17.3593 3.95241L17.3664 3.95948C18.8372 5.43026 18.6257 7.53683 16.7528 9.40968L9.39571 16.7668C7.72074 18.4417 4.9991 18.434 3.33032 16.7652Z" fill="black"/>
</svg>
